<svg xmlns="http://www.w3.org/2000/svg"
     viewBox="0 0 21.9 21.4">
    <title>icon-garant</title>
    <polyline points="8.6 10.2 10.9 12.6 14.7 8.9" fill="none" stroke="#0a0a0a" stroke-linecap="round"
              stroke-miterlimit="10" stroke-width="2"/>
    <path
        d="M5.5,2.8c.2,0,.6.1.9.1.7.1.9,0,1.3-.6a7.26,7.26,0,0,0,.5-.9.77.77,0,0,1,1.2-.3l.9.6a1.05,1.05,0,0,0,1.3,0l.9-.6a.77.77,0,0,1,1.2.3c.2.3.3.6.5.9.4.6.6.7,1.3.6a3.4,3.4,0,0,1,1-.1.8.8,0,0,1,.9.7,4.87,4.87,0,0,1,.1,1.2,1.05,1.05,0,0,0,.8,1c.3.1.7.2,1,.3.7.2.8.6.6,1.2-.1.3-.3.7-.4,1a1,1,0,0,0,.3,1.2,4.62,4.62,0,0,1,.7.7.84.84,0,0,1,0,1.4c-.3.2-.5.5-.8.7a1.13,1.13,0,0,0-.3,1.1c.1.4.3.7.4,1.1.2.6.1.9-.6,1.2-.3.1-.7.2-1,.3a1,1,0,0,0-.8,1,4.87,4.87,0,0,1-.1,1.2c-.1.5-.3.7-.8.7s-.7-.1-1-.1c-.7-.1-1,0-1.3.6-.2.3-.3.6-.5.9-.3.5-.6.5-1.1.2l-.9-.6a1,1,0,0,0-1.4,0,3.55,3.55,0,0,0-.9.4c-.6.4-.9.3-1.3-.3a3,3,0,0,1-.4-.8c-.4-.6-.6-.8-1.4-.6a4.1,4.1,0,0,1-1.1.1.7.7,0,0,1-.8-.6,4.87,4.87,0,0,1-.1-1.2,1.09,1.09,0,0,0-.7-1c-.3-.1-.7-.2-1-.3-.7-.2-.8-.6-.6-1.3.1-.3.3-.7.4-1a.91.91,0,0,0-.2-1.1,6,6,0,0,1-.8-.8c-.5-.5-.5-.9,0-1.3a5,5,0,0,1,.8-.7.91.91,0,0,0,.2-1.1c-.1-.4-.3-.7-.4-1.1-.2-.6,0-.9.6-1.1.3-.1.7-.2,1.1-.3a.9.9,0,0,0,.7-1,3.75,3.75,0,0,1,.1-1.1C4.5,3,4.8,2.8,5.5,2.8Z"
        fill="none" stroke="#000" stroke-miterlimit="10" stroke-width="2"/>
</svg>