<svg xmlns="http://www.w3.org/2000/svg" viewBox="0 0 32.17 32.17">
  <title>icon-facebook</title>
  <path d="M21.11,32.14V20h5.3V14.66H21.12c0-.87-.05-1.7,0-2.51a1.13,1.13,0,0,1,1.26-1.07h4V5.73H26c-1.14,0-2.28,0-3.42,0a6,6,0,0,0-5.81,3.74,6.89,6.89,0,0,0-.7,3.14c0,.67,0,1.35,0,2.06h-3.9V20h3.87V32.14l-.37,0c-3.38,0-6.77,0-10.15,0A5.63,5.63,0,0,1,.07,27.51a5.93,5.93,0,0,1,0-.9c0-7,0-14,0-21A5.66,5.66,0,0,1,4.62.07,6.1,6.1,0,0,1,5.56,0c7,0,14,0,21.07,0A5.65,5.65,0,0,1,32.1,4.65a5.94,5.94,0,0,1,.05.9c0,7,0,14,0,21.07a5.66,5.66,0,0,1-4.64,5.48,4.83,4.83,0,0,1-.73.05H21.35Z" />
</svg>
