<svg xmlns="http://www.w3.org/2000/svg" viewBox="0 0 32.17 32.17">
  <title>icon-instagram</title>
  <g>
    <path d="M16.09,0c2.23,0,4.45,0,6.68,0a9.44,9.44,0,0,1,5.77,1.76,8.74,8.74,0,0,1,3.58,6.67c.09,1.31.05,2.63.06,3.95q0,5.12,0,10.23a10.42,10.42,0,0,1-.86,4.44A8.5,8.5,0,0,1,24.66,32a11,11,0,0,1-1.89.16q-6.7,0-13.39,0A9.36,9.36,0,0,1,3.17,30,8.75,8.75,0,0,1,.1,24.21,9.57,9.57,0,0,1,0,23c0-4.67,0-9.33,0-14A8.81,8.81,0,0,1,2.79,2.4,8.45,8.45,0,0,1,8.4.07C11,0,13.52.05,16.09.05Zm0,29.19h6a14.41,14.41,0,0,0,1.5-.06,5.9,5.9,0,0,0,5.18-3.64,7,7,0,0,0,.52-2.8q0-6.44,0-12.89a9.83,9.83,0,0,0-.07-1.36,5.8,5.8,0,0,0-3.51-4.92A7.24,7.24,0,0,0,22.83,3H9.55a9.64,9.64,0,0,0-1.29.08A5.56,5.56,0,0,0,3.42,6.75,7.78,7.78,0,0,0,3,9.54q0,6.35,0,12.71A13,13,0,0,0,3,23.75a5.58,5.58,0,0,0,3.75,5,7.93,7.93,0,0,0,2.75.44Z" />
    <path d="M16.09,7.73A8.3,8.3,0,1,1,7.78,16,8.34,8.34,0,0,1,16.09,7.73Zm0,13.6A5.32,5.32,0,1,0,10.77,16,5.34,5.34,0,0,0,16.07,21.33Z" />
    <path d="M24.69,9.4a1.87,1.87,0,1,1,0-3.75,1.87,1.87,0,1,1,0,3.75Z" />
  </g>
</svg>
