<svg xmlns="http://www.w3.org/2000/svg" viewBox="0 0 20 21">
    <title>icon-cool</title>
    <path
      d="M7.8,2.12a1,1,0,0,1,1,1.06c0,1,0,2,0,3,0,1.18,0,2.36,0,3.57h.7V9.13c0-.37,0-.74,0-1.11a1,1,0,0,1,1-1h0a1,1,0,0,1,1,1c0,.35,0,.71,0,1.07h.7c0-.12,0-.24,0-.36a1,1,0,0,1,1-1h0a1,1,0,0,1,1,1c0,.35,0,.69,0,1.05h.7V9.55q0-2.14,0-4.29a1,1,0,0,1,.73-1,1.11,1.11,0,0,1,.33,0,1,1,0,0,1,.83.44,1.21,1.21,0,0,1,.2.61c0,2.84,0,5.69,0,8.53a5.2,5.2,0,0,1-4.62,5,6.84,6.84,0,0,1-.68,0,5.52,5.52,0,0,1-4.57-2.39C7.14,16.21,7,16,6.8,15.7c-1.14-1.8-2.29-3.6-3.41-5.41-.28-.44-.5-.91-.75-1.37a1.27,1.27,0,0,1-.08-.25.72.72,0,0,1,.13-.79.66.66,0,0,1,.47-.19.85.85,0,0,1,.32.07,4,4,0,0,1,1,.53c.7.58,1.37,1.21,2,1.82a1.92,1.92,0,0,1,.17.2l.05,0v-.23q0-3.42,0-6.83a1,1,0,0,1,1-1.1H7.8m0-2H7.62A3,3,0,0,0,4.76,3.22V6.13l-.47-.2a2.89,2.89,0,0,0-1.13-.24A2.67,2.67,0,0,0,.64,9.23a3,3,0,0,0,.24.63l.19.36c.19.37.39.75.63,1.14q1.53,2.45,3.08,4.89l.34.53c.19.29.39.59.62.89a7.54,7.54,0,0,0,6.17,3.18c.29,0,.59,0,.88,0a7.19,7.19,0,0,0,6.42-7c0-2.66,0-5.35,0-8V5.24a3.19,3.19,0,0,0-.51-1.67,3,3,0,0,0-2.51-1.36,3.1,3.1,0,0,0-.91.14,3,3,0,0,0-2.14,2.91v.45a3.12,3.12,0,0,0-.47.08A3,3,0,0,0,10.85,5c0-.61,0-1.23,0-1.84a3,3,0,0,0-3-3Z"/>
</svg>