<svg xmlns="http://www.w3.org/2000/svg"
     viewBox="0 0 16.4 14.1">
    <title>icon-works</title>
    <path d="M14.4,2V12.1H2V2H14.4m0-2H2A2,2,0,0,0,0,2V12.1a2,2,0,0,0,2,2H14.4a2,2,0,0,0,2-2V2a2,2,0,0,0-2-2Z"/>
    <path
        d="M8.2,6.9c.1-.2.3-.3.4-.4s.5-.2.6.1c.5,1,1,2.1,1.5,3.1.2.3,0,.6-.4.6H4.4c-.3-.1-.5-.3-.4-.5V9.7L6.1,5.2c0-.1,0-.2.1-.2.1-.2.2-.3.4-.3a.55.55,0,0,1,.5.3A17.39,17.39,0,0,0,8.2,6.8C8.1,6.8,8.2,6.8,8.2,6.9Z"
        fill="#0a0a0a"/>
    <path d="M12.5,5.1a1.3,1.3,0,1,1-1.3-1.3A1.32,1.32,0,0,1,12.5,5.1Z" fill="#0a0a0a"/>
</svg>