<svg version="1.1"
	 xmlns="http://www.w3.org/2000/svg" xmlns:xlink="http://www.w3.org/1999/xlink" xmlns:a="http://ns.adobe.com/AdobeSVGViewerExtensions/3.0/"
	 x="0px" y="0px" width="13.1px" height="15.7px" viewBox="0 0 13.1 15.7" style="enable-background:new 0 0 13.1 15.7;"
	 xml:space="preserve">
<g>
	<g>
		<path fill="currentColor" d="M4.7,7.1c-0.5,0.5-1,1-1.4,1.4C2.9,8.9,2.4,9.1,1.9,9.1c-0.8,0-1.4-0.4-1.7-1.1c-0.3-0.7-0.2-1.4,0.3-2
			C0.5,6,0.6,6,0.6,5.9C2.5,4,4.5,2,6.4,0.1c0,0,0.1-0.1,0.1-0.1c0,0,0.1,0.1,0.1,0.1c1.9,1.9,3.9,3.9,5.8,5.8c1,1,0.7,2.5-0.5,3
			c-0.7,0.3-1.5,0.2-2.1-0.4C9.4,8.2,9,7.8,8.6,7.3C8.5,7.3,8.5,7.2,8.4,7.1c0,0.1,0,0.2,0,0.3c0,2.1,0,4.2,0,6.4
			c0,0.9-0.6,1.7-1.4,1.9c-1.2,0.3-2.3-0.6-2.3-1.9c0-2.1,0-4.2,0-6.4C4.7,7.4,4.7,7.3,4.7,7.1z"/>
	</g>
</g>
</svg>
