<svg version="1.1"
	 xmlns="http://www.w3.org/2000/svg" xmlns:xlink="http://www.w3.org/1999/xlink"
	 x="0px" y="0px" width="9.9px" height="9.9px" viewBox="0 0 9.9 9.9" style="enable-background:new 0 0 9.9 9.9;"
	 xml:space="preserve">
	<g>
		<g>
			<path d="M5,1.8c1,1,2,2,3,3c0,0-0.1,0.1-0.1,0.1C6.7,6.2,5.4,7.4,4.2,8.6C4,8.9,3.7,9.1,3.4,9.2
				C2.5,9.4,1.7,9.7,0.8,9.8C0.3,10-0.1,9.5,0,9.1c0.2-0.9,0.4-1.8,0.7-2.7C0.8,6.1,1,5.9,1.2,5.7C2.4,4.5,3.6,3.2,4.9,2
				C4.9,1.9,5,1.9,5,1.8z"/>
			<path d="M6.1,0.8c0.6-0.7,1.4-1,2.2-0.7c0.8,0.2,1.3,0.8,1.5,1.6C10,2.5,9.7,3.2,9.1,3.8C8.1,2.8,7.1,1.8,6.1,0.8z"/>
		</g>
	</g>
</svg>
