<svg xmlns="http://www.w3.org/2000/svg" viewBox="0 0 31.6 27.6">
    <title>icon-heart</title>
    <path
      d="M23.4,2a6.28,6.28,0,0,1,6.2,5.7,6.06,6.06,0,0,1-1.7,5c-3.2,3.2-6.4,6.5-9.6,9.7l-2.4,2.5-3.5-3.6C9.6,18.5,6.8,15.6,4,12.8A6.24,6.24,0,0,1,2.4,6.7,6.13,6.13,0,0,1,6.8,2.3,2.9,2.9,0,0,1,8.2,2a6.47,6.47,0,0,1,5.6,3.5c0,.1.1.2.2.3V6a1.89,1.89,0,0,0,1.8,1.1h0a2,2,0,0,0,1.8-1.2,6.08,6.08,0,0,1,3.7-3.5A5.22,5.22,0,0,1,23.4,2m0-2a6.46,6.46,0,0,0-2.7.5,8.22,8.22,0,0,0-4.9,4.6c-.1-.2-.2-.3-.2-.5A8.16,8.16,0,0,0,8.2,0,7.61,7.61,0,0,0,6.1.3,8.23,8.23,0,0,0,2.4,14.1c4.1,4.2,8.3,8.3,12.4,12.5a9,9,0,0,1,.9,1c.1-.1.2-.2.3-.2C20.4,23,24.8,18.5,29.2,14a7.88,7.88,0,0,0,2.3-6.5A8.08,8.08,0,0,0,23.4,0Z"
      fill="#fff"/>
</svg>