<svg xmlns="http://www.w3.org/2000/svg" viewBox="0 0 33.16 33.17">
  <title>icon-pinterest</title>
  <g>
    <path d="M.5,17.6v-2c0-.2.05-.41.08-.61A15.46,15.46,0,0,1,4.45,6.06C8.71,1.37,14-.43,20.19,1A15.88,15.88,0,0,1,32,20.84c-1.82,6.4-6.2,10.24-12.73,11.58-.57.12-1.15.16-1.73.24H15.63a1.65,1.65,0,0,0-.24-.05,14.88,14.88,0,0,1-5.61-1.46,15.87,15.87,0,0,1-9-11.77C.64,18.8.58,18.19.5,17.6Zm1.94-1A14.14,14.14,0,1,0,16.6,2.45,14.13,14.13,0,0,0,2.44,16.58Z" stroke-miterlimit="10"/>
    <path d="M15.55,19.14c-.44,2.12-.87,4.18-2.39,5.87,0-.16-.09-.27-.1-.38a12.19,12.19,0,0,1,.39-5c.28-1.15.53-2.3.78-3.45a1,1,0,0,0,0-.45,3.67,3.67,0,0,1,.06-2.61,2.72,2.72,0,0,1,.64-.87,1.2,1.2,0,0,1,1.35-.21,1.13,1.13,0,0,1,.69,1.11,7.61,7.61,0,0,1-.21,1.54c-.15.68-.37,1.35-.54,2a1.44,1.44,0,0,0,.45,1.57,1.53,1.53,0,0,0,1.62.22,2.45,2.45,0,0,0,1.14-.95,5.88,5.88,0,0,0,1-2.94,7.71,7.71,0,0,0,0-2,3.28,3.28,0,0,0-3.21-2.76,4.44,4.44,0,0,0-4.84,5.33,3.74,3.74,0,0,0,.5,1.1.72.72,0,0,1,.13.64c-.07.21-.1.43-.15.64s-.25.4-.56.26a2.65,2.65,0,0,1-1.31-1.38,5.38,5.38,0,0,1,0-4.33A6,6,0,0,1,15.94,8.3a5.91,5.91,0,0,1,4.45,1,5.3,5.3,0,0,1,2.29,4.39,8.07,8.07,0,0,1-.9,4,4.49,4.49,0,0,1-3.3,2.54A2.8,2.8,0,0,1,15.55,19.14Z" />
  </g>
</svg>
