<svg xmlns="http://www.w3.org/2000/svg" viewBox="0 0 35.6 24.44">
  <title>icon-youtube</title>
  <path d="M0,15.07q0-2.85,0-5.7c0-.15,0-.29.05-.44.07-1.33.1-2.66.22-4a5,5,0,0,1,3-4.25A6.11,6.11,0,0,1,5.94.2c4.48-.07,9-.2,13.45-.2,3.73,0,7.46.12,11.19.26a4.94,4.94,0,0,1,4.61,3.87,15.14,15.14,0,0,1,.27,2.52,97,97,0,0,1-.11,12.88,5.07,5.07,0,0,1-4.69,4.65c-3.7.14-7.41.27-11.12.26-4.78,0-9.57-.12-14.35-.24A5,5,0,0,1,.34,20a23.08,23.08,0,0,1-.2-2.49C.09,16.69,0,15.88,0,15.07ZM13.37,20l11.11-7.77L13.37,4.45Z"/>
</svg>
