<svg xmlns="http://www.w3.org/2000/svg" xmlns:xlink="http://www.w3.org/1999/xlink" viewBox="0 0 193.65 76.22">
    <defs>
        <linearGradient id="ff33f0e5-1d73-4f9d-aad8-a775315778da" x1="101.74" y1="72.06" x2="101.74"
                        gradientUnits="userSpaceOnUse">
            <stop offset="0" stop-color="#f6615d"/>
            <stop offset="1" stop-color="#e78288"/>
        </linearGradient>
    </defs>
    <title>logo</title>
    <circle cx="101.74" cy="36.03" r="36.03" fill="url(#ff33f0e5-1d73-4f9d-aad8-a775315778da)"/>
    <path d="M69.53,76.22V66.36l-4.08,9.87h-.61l-4.06-9.87v9.87H59.28v-12h2.14l3.72,9,3.74-9H71v12Z" fill="#fff"/>
    <path d="M86,76.22l-1.06-2.66h-6l-1.06,2.66H76.17l4.82-12h1.85l4.84,12Zm-4-10.44-2.55,6.45h5.09Z" fill="#fff"/>
    <path
      d="M99.76,76.22l-3.06-4.76H94.32v4.76H92.83v-12h4.82a3.49,3.49,0,0,1,3.76,3.61,3.31,3.31,0,0,1-3.11,3.49l3.24,4.89Zm.09-8.38a2.23,2.23,0,0,0-2.39-2.28H94.32v4.58h3.15A2.24,2.24,0,0,0,99.86,67.85Z"
      fill="#fff"/>
    <path d="M114.59,76.22,110,70.83l-1.21,1.37v4h-1.49v-12h1.49v6.2l5.3-6.2H116l-5,5.7,5.43,6.29Z" fill="#fff"/>
    <path d="M121.74,76.22v-12h7.85v1.33h-6.36v3.86h6.24v1.33h-6.24v4.13h6.36v1.33Z" fill="#fff"/>
    <path d="M138.52,76.22V65.57h-3.79V64.24h9.1v1.33H140V76.22Z" fill="#fff"/>
    <path
      d="M94,29.85a4.21,4.21,0,1,1,8.4,0,4.21,4.21,0,1,1-8.4,0Zm7,0c0-1.72-1-3.27-2.81-3.27s-2.83,1.55-2.83,3.27,1,3.29,2.83,3.29S101,31.59,101,29.85Z"
      fill="#fff" stroke="#fff" stroke-miterlimit="10" stroke-width="0.5"/>
    <path
      d="M104.91,34.1V26.77H103.5V25.61h1.41V25c0-1.74.95-2.76,2.46-2.76a2.47,2.47,0,0,1,1.79.65l-.54.86a1.55,1.55,0,0,0-1.05-.42c-.86,0-1.34.6-1.34,1.67v.65H108v1.16h-1.72V34.1Z"
      fill="#fff" stroke="#fff" stroke-miterlimit="10" stroke-width="0.5"/>
    <path
      d="M94.76,47V41.47H93.35V40.31h1.41V38h1.32v2.32H97.8v1.16H96.07v5.27c0,.63.28,1.09.86,1.09a1.27,1.27,0,0,0,.9-.35l.39,1a2.15,2.15,0,0,1-1.58.54A1.74,1.74,0,0,1,94.76,47Z"
      fill="#fff" stroke="#fff" stroke-miterlimit="10" stroke-width="0.5"/>
    <path
      d="M105.4,48.79V43.21c0-1.49-.77-1.93-1.92-1.93A3.34,3.34,0,0,0,101,42.59v6.2H99.66V37.07H101v4.46a4.22,4.22,0,0,1,3-1.44,2.39,2.39,0,0,1,2.71,2.71v6Z"
      fill="#fff" stroke="#fff" stroke-miterlimit="10" stroke-width="0.5"/>
    <path
      d="M108.86,44.54A4.24,4.24,0,0,1,113,40.09c2.57,0,4.08,2,4.08,4.55V45h-6.87a3,3,0,0,0,3.06,2.93,3.71,3.71,0,0,0,2.62-1.07l.63.86a4.61,4.61,0,0,1-3.37,1.3A4.21,4.21,0,0,1,108.86,44.54ZM113,41.18A2.83,2.83,0,0,0,110.25,44h5.57A2.75,2.75,0,0,0,113,41.18Z"
      fill="#fff" stroke="#fff" stroke-miterlimit="10" stroke-width="0.5"/>
    <path
      d="M124.19,49.1v-27h10.66c8.47,0,14.35,5.39,14.35,13.54s-5.88,13.5-14.35,13.5Zm19.13-13.5c0-4.78-2.92-8.47-8.47-8.47h-4.9V44h4.9A8.09,8.09,0,0,0,143.32,35.61Z"
      fill="#fff"/>
    <path
      d="M164.92,49.1v-2a8.1,8.1,0,0,1-6.2,2.51c-3.12,0-6.81-2.11-6.81-6.48,0-4.58,3.69-6.32,6.81-6.32a8.05,8.05,0,0,1,6.2,2.39V36.54c0-2-1.7-3.28-4.3-3.28a8.23,8.23,0,0,0-5.71,2.31L153,32.12A12.84,12.84,0,0,1,161.52,29c4.46,0,8.55,1.78,8.55,7.42V49.1Zm0-4.7V42a5.15,5.15,0,0,0-4.13-1.7c-2,0-3.69,1.05-3.69,3s1.66,2.88,3.69,2.88A5.15,5.15,0,0,0,164.92,44.4Z"
      fill="#fff"/>
    <path
      d="M175.25,52.14a4.43,4.43,0,0,0,1.62.32A2.6,2.6,0,0,0,179.59,51l.73-1.66-7.94-19.86h5.51L183,43.14l5.11-13.62h5.55l-9.2,22.78C183,56,180.4,57,177,57a14.06,14.06,0,0,1-2.55-.28Z"
      fill="#fff"/>
    <path d="M18.64,49.1,5.75,31.47V49.1H0v-27H5.92L18.44,39v-17h5.75v27Z" fill="#fff"/>
    <path
      d="M41.18,49.1v-2A8.1,8.1,0,0,1,35,49.59c-3.12,0-6.81-2.11-6.81-6.48,0-4.58,3.69-6.32,6.81-6.32a8.05,8.05,0,0,1,6.2,2.39V36.54c0-2-1.7-3.28-4.3-3.28a8.23,8.23,0,0,0-5.71,2.31l-1.95-3.44A12.84,12.84,0,0,1,37.77,29c4.46,0,8.55,1.78,8.55,7.42V49.1Zm0-4.7V42A5.15,5.15,0,0,0,37,40.27c-2,0-3.69,1.05-3.69,3S35,46.1,37,46.1A5.15,5.15,0,0,0,41.18,44.4Z"
      fill="#fff"/>
    <path d="M50.9,24.34A3.08,3.08,0,1,1,54,27.42,3.1,3.1,0,0,1,50.9,24.34Zm.53,24.76V29.53h5.15V49.1Z" fill="#fff"/>
    <path d="M61.68,49.1v-27h5.15v27Z" fill="#fff"/>
    <path
      d="M70.23,46.55l2.23-3.61a11.2,11.2,0,0,0,6.77,2.67c2.23,0,3.28-.89,3.28-2.11,0-3.24-11.63-.61-11.63-8.31,0-3.28,2.88-6.16,8-6.16a12.5,12.5,0,0,1,7.9,2.67l-2.07,3.53A8.26,8.26,0,0,0,78.95,33c-1.86,0-3.08.85-3.08,1.94,0,2.92,11.59.49,11.59,8.39,0,3.57-3,6.28-8.47,6.28A13.18,13.18,0,0,1,70.23,46.55Z"
      fill="#fff"/>
</svg>