<?xml version="1.0" encoding="UTF-8"?><!DOCTYPE svg PUBLIC "-//W3C//DTD SVG 1.1//EN" "http://www.w3.org/Graphics/SVG/1.1/DTD/svg11.dtd"><svg xmlns="http://www.w3.org/2000/svg" xmlns:xlink="http://www.w3.org/1999/xlink" xmlns:a="http://ns.adobe.com/AdobeSVGViewerExtensions/3.0/"><defs>
        <linearGradient id="ff33f0e5-1d73-4f9d-aad8-a775315778da" x1="101.74" y1="72.06" x2="101.74" gradientUnits="userSpaceOnUse">
            <stop offset="0" stop-color="#f6615d"/>
            <stop offset="1" stop-color="#e78288"/>
        </linearGradient>
    </defs><symbol id="icon-arrowDrop" viewBox="0 0 11 6.9">
    <title>icon-arrowDrop</title>
    <polyline points="0.7 0.7 5.5 5.5 10.3 0.7" fill="none" stroke="#fff" stroke-miterlimit="10" stroke-width="2"/>
</symbol><symbol id="icon-btnArrow" viewBox="0 0 4.8 9.6">
    <polyline points="0,9.6 4.8,4.8 0,0 "/>
</symbol><symbol id="icon-cart" viewBox="0 0 28.8 26.2">
    <title>icon-cart</title>
    <polygon points="27.8 25.2 1 25.2 3.2 7.9 25.6 7.9 27.8 25.2" fill="none" stroke="currentColor" stroke-linecap="round" stroke-linejoin="round" stroke-width="2"/>
    <path d="M21.9,8.5a7.5,7.5,0,1,0-15,0v5.3" fill="none" stroke="currentColor" stroke-linecap="round" stroke-linejoin="round" stroke-width="2"/>
    <line x1="21.9" y1="8.8" x2="21.9" y2="13.8" fill="none" stroke="currentColor" stroke-linecap="round" stroke-linejoin="round" stroke-width="2"/>
</symbol><symbol id="icon-comments" viewBox="0 0 20.47 18.02">
    <title>icon-comments</title>
    <path d="M18,1H2.41A1.34,1.34,0,0,0,1,2.4q0,4.88,0,9.76a1.33,1.33,0,0,0,1.4,1.39H4.09a.35.35,0,0,1,.18,0L7,15.48l.78.54.14.09.5.32.25-1.12c.13-.58.26-1.16.39-1.76h9a1.34,1.34,0,0,0,1.46-1.45V2.43A1.34,1.34,0,0,0,18,1Z" fill="none" stroke="currentColor" stroke-miterlimit="10" stroke-width="2"/>
    <path d="M6,7.27a1,1,0,1,1,1,1A1,1,0,0,1,6,7.27Z" stroke="currentColor" stroke-miterlimit="10"/>
    <path d="M14.78,7.28a1,1,0,1,1-1-1A1,1,0,0,1,14.78,7.28Z" stroke="currentColor" stroke-miterlimit="10"/>
</symbol><symbol id="icon-cool" viewBox="0 0 20 21">
    <title>icon-cool</title>
    <path d="M7.8,2.12a1,1,0,0,1,1,1.06c0,1,0,2,0,3,0,1.18,0,2.36,0,3.57h.7V9.13c0-.37,0-.74,0-1.11a1,1,0,0,1,1-1h0a1,1,0,0,1,1,1c0,.35,0,.71,0,1.07h.7c0-.12,0-.24,0-.36a1,1,0,0,1,1-1h0a1,1,0,0,1,1,1c0,.35,0,.69,0,1.05h.7V9.55q0-2.14,0-4.29a1,1,0,0,1,.73-1,1.11,1.11,0,0,1,.33,0,1,1,0,0,1,.83.44,1.21,1.21,0,0,1,.2.61c0,2.84,0,5.69,0,8.53a5.2,5.2,0,0,1-4.62,5,6.84,6.84,0,0,1-.68,0,5.52,5.52,0,0,1-4.57-2.39C7.14,16.21,7,16,6.8,15.7c-1.14-1.8-2.29-3.6-3.41-5.41-.28-.44-.5-.91-.75-1.37a1.27,1.27,0,0,1-.08-.25.72.72,0,0,1,.13-.79.66.66,0,0,1,.47-.19.85.85,0,0,1,.32.07,4,4,0,0,1,1,.53c.7.58,1.37,1.21,2,1.82a1.92,1.92,0,0,1,.17.2l.05,0v-.23q0-3.42,0-6.83a1,1,0,0,1,1-1.1H7.8m0-2H7.62A3,3,0,0,0,4.76,3.22V6.13l-.47-.2a2.89,2.89,0,0,0-1.13-.24A2.67,2.67,0,0,0,.64,9.23a3,3,0,0,0,.24.63l.19.36c.19.37.39.75.63,1.14q1.53,2.45,3.08,4.89l.34.53c.19.29.39.59.62.89a7.54,7.54,0,0,0,6.17,3.18c.29,0,.59,0,.88,0a7.19,7.19,0,0,0,6.42-7c0-2.66,0-5.35,0-8V5.24a3.19,3.19,0,0,0-.51-1.67,3,3,0,0,0-2.51-1.36,3.1,3.1,0,0,0-.91.14,3,3,0,0,0-2.14,2.91v.45a3.12,3.12,0,0,0-.47.08A3,3,0,0,0,10.85,5c0-.61,0-1.23,0-1.84a3,3,0,0,0-3-3Z"/>
</symbol><symbol id="icon-edit" viewBox="0 0 9.9 9.9">
	<g>
		<g>
			<path d="M5,1.8c1,1,2,2,3,3c0,0-0.1,0.1-0.1,0.1C6.7,6.2,5.4,7.4,4.2,8.6C4,8.9,3.7,9.1,3.4,9.2
				C2.5,9.4,1.7,9.7,0.8,9.8C0.3,10-0.1,9.5,0,9.1c0.2-0.9,0.4-1.8,0.7-2.7C0.8,6.1,1,5.9,1.2,5.7C2.4,4.5,3.6,3.2,4.9,2
				C4.9,1.9,5,1.9,5,1.8z"/>
			<path d="M6.1,0.8c0.6-0.7,1.4-1,2.2-0.7c0.8,0.2,1.3,0.8,1.5,1.6C10,2.5,9.7,3.2,9.1,3.8C8.1,2.8,7.1,1.8,6.1,0.8z"/>
		</g>
	</g>
</symbol><symbol id="icon-facebook" viewBox="0 0 32.17 32.17">
  <title>icon-facebook</title>
  <path d="M21.11,32.14V20h5.3V14.66H21.12c0-.87-.05-1.7,0-2.51a1.13,1.13,0,0,1,1.26-1.07h4V5.73H26c-1.14,0-2.28,0-3.42,0a6,6,0,0,0-5.81,3.74,6.89,6.89,0,0,0-.7,3.14c0,.67,0,1.35,0,2.06h-3.9V20h3.87V32.14l-.37,0c-3.38,0-6.77,0-10.15,0A5.63,5.63,0,0,1,.07,27.51a5.93,5.93,0,0,1,0-.9c0-7,0-14,0-21A5.66,5.66,0,0,1,4.62.07,6.1,6.1,0,0,1,5.56,0c7,0,14,0,21.07,0A5.65,5.65,0,0,1,32.1,4.65a5.94,5.94,0,0,1,.05.9c0,7,0,14,0,21.07a5.66,5.66,0,0,1-4.64,5.48,4.83,4.83,0,0,1-.73.05H21.35Z"/>
</symbol><symbol id="icon-heart" viewBox="0 0 24.89 22.39">
    <title>icon-heart</title>
    <path d="M12.45,4.65A5.95,5.95,0,0,1,23.86,6.43a5.76,5.76,0,0,1-1.67,4.73Q17.42,16,12.62,20.83l-.19.17-.68-.7-9-9.07a6,6,0,1,1,9.52-6.91Z" stroke="currentColor" stroke-miterlimit="10" stroke-width="2"/>
</symbol><symbol id="icon-increase" viewBox="0 0 13.1 15.7">
<g>
	<g>
		<path fill="currentColor" d="M4.7,7.1c-0.5,0.5-1,1-1.4,1.4C2.9,8.9,2.4,9.1,1.9,9.1c-0.8,0-1.4-0.4-1.7-1.1c-0.3-0.7-0.2-1.4,0.3-2
			C0.5,6,0.6,6,0.6,5.9C2.5,4,4.5,2,6.4,0.1c0,0,0.1-0.1,0.1-0.1c0,0,0.1,0.1,0.1,0.1c1.9,1.9,3.9,3.9,5.8,5.8c1,1,0.7,2.5-0.5,3
			c-0.7,0.3-1.5,0.2-2.1-0.4C9.4,8.2,9,7.8,8.6,7.3C8.5,7.3,8.5,7.2,8.4,7.1c0,0.1,0,0.2,0,0.3c0,2.1,0,4.2,0,6.4
			c0,0.9-0.6,1.7-1.4,1.9c-1.2,0.3-2.3-0.6-2.3-1.9c0-2.1,0-4.2,0-6.4C4.7,7.4,4.7,7.3,4.7,7.1z"/>
	</g>
</g>
</symbol><symbol id="icon-instagram" viewBox="0 0 32.17 32.17">
  <title>icon-instagram</title>
  <g>
    <path d="M16.09,0c2.23,0,4.45,0,6.68,0a9.44,9.44,0,0,1,5.77,1.76,8.74,8.74,0,0,1,3.58,6.67c.09,1.31.05,2.63.06,3.95q0,5.12,0,10.23a10.42,10.42,0,0,1-.86,4.44A8.5,8.5,0,0,1,24.66,32a11,11,0,0,1-1.89.16q-6.7,0-13.39,0A9.36,9.36,0,0,1,3.17,30,8.75,8.75,0,0,1,.1,24.21,9.57,9.57,0,0,1,0,23c0-4.67,0-9.33,0-14A8.81,8.81,0,0,1,2.79,2.4,8.45,8.45,0,0,1,8.4.07C11,0,13.52.05,16.09.05Zm0,29.19h6a14.41,14.41,0,0,0,1.5-.06,5.9,5.9,0,0,0,5.18-3.64,7,7,0,0,0,.52-2.8q0-6.44,0-12.89a9.83,9.83,0,0,0-.07-1.36,5.8,5.8,0,0,0-3.51-4.92A7.24,7.24,0,0,0,22.83,3H9.55a9.64,9.64,0,0,0-1.29.08A5.56,5.56,0,0,0,3.42,6.75,7.78,7.78,0,0,0,3,9.54q0,6.35,0,12.71A13,13,0,0,0,3,23.75a5.58,5.58,0,0,0,3.75,5,7.93,7.93,0,0,0,2.75.44Z"/>
    <path d="M16.09,7.73A8.3,8.3,0,1,1,7.78,16,8.34,8.34,0,0,1,16.09,7.73Zm0,13.6A5.32,5.32,0,1,0,10.77,16,5.34,5.34,0,0,0,16.07,21.33Z"/>
    <path d="M24.69,9.4a1.87,1.87,0,1,1,0-3.75,1.87,1.87,0,1,1,0,3.75Z"/>
  </g>
</symbol><symbol id="icon-menu" viewBox="0 0 26.62 21.05">
    <title>icon-menu</title>
    <line x1="1.5" y1="1.5" x2="25.12" y2="1.5" fill="none" stroke="currentColor" stroke-linecap="round" stroke-miterlimit="10" stroke-width="3"/>
    <line x1="1.5" y1="10.53" x2="25.12" y2="10.53" fill="none" stroke="currentColor" stroke-linecap="round" stroke-miterlimit="10" stroke-width="3"/>
    <line x1="1.5" y1="19.55" x2="25.12" y2="19.55" fill="none" stroke="currentColor" stroke-linecap="round" stroke-miterlimit="10" stroke-width="3"/>
</symbol><symbol id="icon-pinterest" viewBox="0 0 33.16 33.17">
  <title>icon-pinterest</title>
  <g>
    <path d="M.5,17.6v-2c0-.2.05-.41.08-.61A15.46,15.46,0,0,1,4.45,6.06C8.71,1.37,14-.43,20.19,1A15.88,15.88,0,0,1,32,20.84c-1.82,6.4-6.2,10.24-12.73,11.58-.57.12-1.15.16-1.73.24H15.63a1.65,1.65,0,0,0-.24-.05,14.88,14.88,0,0,1-5.61-1.46,15.87,15.87,0,0,1-9-11.77C.64,18.8.58,18.19.5,17.6Zm1.94-1A14.14,14.14,0,1,0,16.6,2.45,14.13,14.13,0,0,0,2.44,16.58Z" stroke-miterlimit="10"/>
    <path d="M15.55,19.14c-.44,2.12-.87,4.18-2.39,5.87,0-.16-.09-.27-.1-.38a12.19,12.19,0,0,1,.39-5c.28-1.15.53-2.3.78-3.45a1,1,0,0,0,0-.45,3.67,3.67,0,0,1,.06-2.61,2.72,2.72,0,0,1,.64-.87,1.2,1.2,0,0,1,1.35-.21,1.13,1.13,0,0,1,.69,1.11,7.61,7.61,0,0,1-.21,1.54c-.15.68-.37,1.35-.54,2a1.44,1.44,0,0,0,.45,1.57,1.53,1.53,0,0,0,1.62.22,2.45,2.45,0,0,0,1.14-.95,5.88,5.88,0,0,0,1-2.94,7.71,7.71,0,0,0,0-2,3.28,3.28,0,0,0-3.21-2.76,4.44,4.44,0,0,0-4.84,5.33,3.74,3.74,0,0,0,.5,1.1.72.72,0,0,1,.13.64c-.07.21-.1.43-.15.64s-.25.4-.56.26a2.65,2.65,0,0,1-1.31-1.38,5.38,5.38,0,0,1,0-4.33A6,6,0,0,1,15.94,8.3a5.91,5.91,0,0,1,4.45,1,5.3,5.3,0,0,1,2.29,4.39,8.07,8.07,0,0,1-.9,4,4.49,4.49,0,0,1-3.3,2.54A2.8,2.8,0,0,1,15.55,19.14Z"/>
  </g>
</symbol><symbol id="icon-search" viewBox="0 0 18.38 17.74">
    <title>icon-search</title>
    <g>
        <circle cx="8.06" cy="8.06" r="7.06" fill="none" stroke="currentColor" stroke-linecap="round" stroke-miterlimit="10" stroke-width="2"/>
        <line x1="13.37" y1="12.73" x2="17.38" y2="16.74" fill="none" stroke="currentColor" stroke-linecap="round" stroke-miterlimit="10" stroke-width="2"/>
    </g>
</symbol><symbol id="icon-star" viewBox="0 0 16.52 15.81">
    <title>icon-star</title>
    <polygon points="8.26 1 10.19 5.99 15.52 6.28 11.38 9.65 12.75 14.81 8.26 11.91 3.77 14.81 5.15 9.65 1 6.28 6.34 5.99 8.26 1" stroke="currentColor" stroke-linejoin="round" stroke-width="2"/>
</symbol><symbol id="icon-youtube" viewBox="0 0 35.6 24.44">
  <title>icon-youtube</title>
  <path d="M0,15.07q0-2.85,0-5.7c0-.15,0-.29.05-.44.07-1.33.1-2.66.22-4a5,5,0,0,1,3-4.25A6.11,6.11,0,0,1,5.94.2c4.48-.07,9-.2,13.45-.2,3.73,0,7.46.12,11.19.26a4.94,4.94,0,0,1,4.61,3.87,15.14,15.14,0,0,1,.27,2.52,97,97,0,0,1-.11,12.88,5.07,5.07,0,0,1-4.69,4.65c-3.7.14-7.41.27-11.12.26-4.78,0-9.57-.12-14.35-.24A5,5,0,0,1,.34,20a23.08,23.08,0,0,1-.2-2.49C.09,16.69,0,15.88,0,15.07ZM13.37,20l11.11-7.77L13.37,4.45Z"/>
</symbol><symbol id="logo" viewBox="0 0 193.65 76.22">
    
    <title>logo</title>
    <circle cx="101.74" cy="36.03" r="36.03" fill="url(#ff33f0e5-1d73-4f9d-aad8-a775315778da)"/>
    <path d="M69.53,76.22V66.36l-4.08,9.87h-.61l-4.06-9.87v9.87H59.28v-12h2.14l3.72,9,3.74-9H71v12Z" fill="#fff"/>
    <path d="M86,76.22l-1.06-2.66h-6l-1.06,2.66H76.17l4.82-12h1.85l4.84,12Zm-4-10.44-2.55,6.45h5.09Z" fill="#fff"/>
    <path d="M99.76,76.22l-3.06-4.76H94.32v4.76H92.83v-12h4.82a3.49,3.49,0,0,1,3.76,3.61,3.31,3.31,0,0,1-3.11,3.49l3.24,4.89Zm.09-8.38a2.23,2.23,0,0,0-2.39-2.28H94.32v4.58h3.15A2.24,2.24,0,0,0,99.86,67.85Z" fill="#fff"/>
    <path d="M114.59,76.22,110,70.83l-1.21,1.37v4h-1.49v-12h1.49v6.2l5.3-6.2H116l-5,5.7,5.43,6.29Z" fill="#fff"/>
    <path d="M121.74,76.22v-12h7.85v1.33h-6.36v3.86h6.24v1.33h-6.24v4.13h6.36v1.33Z" fill="#fff"/>
    <path d="M138.52,76.22V65.57h-3.79V64.24h9.1v1.33H140V76.22Z" fill="#fff"/>
    <path d="M94,29.85a4.21,4.21,0,1,1,8.4,0,4.21,4.21,0,1,1-8.4,0Zm7,0c0-1.72-1-3.27-2.81-3.27s-2.83,1.55-2.83,3.27,1,3.29,2.83,3.29S101,31.59,101,29.85Z" fill="#fff" stroke="#fff" stroke-miterlimit="10" stroke-width="0.5"/>
    <path d="M104.91,34.1V26.77H103.5V25.61h1.41V25c0-1.74.95-2.76,2.46-2.76a2.47,2.47,0,0,1,1.79.65l-.54.86a1.55,1.55,0,0,0-1.05-.42c-.86,0-1.34.6-1.34,1.67v.65H108v1.16h-1.72V34.1Z" fill="#fff" stroke="#fff" stroke-miterlimit="10" stroke-width="0.5"/>
    <path d="M94.76,47V41.47H93.35V40.31h1.41V38h1.32v2.32H97.8v1.16H96.07v5.27c0,.63.28,1.09.86,1.09a1.27,1.27,0,0,0,.9-.35l.39,1a2.15,2.15,0,0,1-1.58.54A1.74,1.74,0,0,1,94.76,47Z" fill="#fff" stroke="#fff" stroke-miterlimit="10" stroke-width="0.5"/>
    <path d="M105.4,48.79V43.21c0-1.49-.77-1.93-1.92-1.93A3.34,3.34,0,0,0,101,42.59v6.2H99.66V37.07H101v4.46a4.22,4.22,0,0,1,3-1.44,2.39,2.39,0,0,1,2.71,2.71v6Z" fill="#fff" stroke="#fff" stroke-miterlimit="10" stroke-width="0.5"/>
    <path d="M108.86,44.54A4.24,4.24,0,0,1,113,40.09c2.57,0,4.08,2,4.08,4.55V45h-6.87a3,3,0,0,0,3.06,2.93,3.71,3.71,0,0,0,2.62-1.07l.63.86a4.61,4.61,0,0,1-3.37,1.3A4.21,4.21,0,0,1,108.86,44.54ZM113,41.18A2.83,2.83,0,0,0,110.25,44h5.57A2.75,2.75,0,0,0,113,41.18Z" fill="#fff" stroke="#fff" stroke-miterlimit="10" stroke-width="0.5"/>
    <path d="M124.19,49.1v-27h10.66c8.47,0,14.35,5.39,14.35,13.54s-5.88,13.5-14.35,13.5Zm19.13-13.5c0-4.78-2.92-8.47-8.47-8.47h-4.9V44h4.9A8.09,8.09,0,0,0,143.32,35.61Z" fill="#fff"/>
    <path d="M164.92,49.1v-2a8.1,8.1,0,0,1-6.2,2.51c-3.12,0-6.81-2.11-6.81-6.48,0-4.58,3.69-6.32,6.81-6.32a8.05,8.05,0,0,1,6.2,2.39V36.54c0-2-1.7-3.28-4.3-3.28a8.23,8.23,0,0,0-5.71,2.31L153,32.12A12.84,12.84,0,0,1,161.52,29c4.46,0,8.55,1.78,8.55,7.42V49.1Zm0-4.7V42a5.15,5.15,0,0,0-4.13-1.7c-2,0-3.69,1.05-3.69,3s1.66,2.88,3.69,2.88A5.15,5.15,0,0,0,164.92,44.4Z" fill="#fff"/>
    <path d="M175.25,52.14a4.43,4.43,0,0,0,1.62.32A2.6,2.6,0,0,0,179.59,51l.73-1.66-7.94-19.86h5.51L183,43.14l5.11-13.62h5.55l-9.2,22.78C183,56,180.4,57,177,57a14.06,14.06,0,0,1-2.55-.28Z" fill="#fff"/>
    <path d="M18.64,49.1,5.75,31.47V49.1H0v-27H5.92L18.44,39v-17h5.75v27Z" fill="#fff"/>
    <path d="M41.18,49.1v-2A8.1,8.1,0,0,1,35,49.59c-3.12,0-6.81-2.11-6.81-6.48,0-4.58,3.69-6.32,6.81-6.32a8.05,8.05,0,0,1,6.2,2.39V36.54c0-2-1.7-3.28-4.3-3.28a8.23,8.23,0,0,0-5.71,2.31l-1.95-3.44A12.84,12.84,0,0,1,37.77,29c4.46,0,8.55,1.78,8.55,7.42V49.1Zm0-4.7V42A5.15,5.15,0,0,0,37,40.27c-2,0-3.69,1.05-3.69,3S35,46.1,37,46.1A5.15,5.15,0,0,0,41.18,44.4Z" fill="#fff"/>
    <path d="M50.9,24.34A3.08,3.08,0,1,1,54,27.42,3.1,3.1,0,0,1,50.9,24.34Zm.53,24.76V29.53h5.15V49.1Z" fill="#fff"/>
    <path d="M61.68,49.1v-27h5.15v27Z" fill="#fff"/>
    <path d="M70.23,46.55l2.23-3.61a11.2,11.2,0,0,0,6.77,2.67c2.23,0,3.28-.89,3.28-2.11,0-3.24-11.63-.61-11.63-8.31,0-3.28,2.88-6.16,8-6.16a12.5,12.5,0,0,1,7.9,2.67l-2.07,3.53A8.26,8.26,0,0,0,78.95,33c-1.86,0-3.08.85-3.08,1.94,0,2.92,11.59.49,11.59,8.39,0,3.57-3,6.28-8.47,6.28A13.18,13.18,0,0,1,70.23,46.55Z" fill="#fff"/>
</symbol></svg>